<svg xmlns="http://www.w3.org/2000/svg" width="64" height="60.31" viewBox="0 0 64 60.31">
  <g id="Group_114" data-name="Group 114" transform="translate(0 0)">
    <g id="warning" transform="translate(0 0)">
      <g id="Group_111" data-name="Group 111">
        <path id="Path_40" data-name="Path 40" d="M62.67,60.908,40.062,19.348a9.376,9.376,0,0,0-16.124,0L1.331,60.908a9.371,9.371,0,0,0,8.06,14.161H54.608A9.372,9.372,0,0,0,62.67,60.908ZM32,67.569a3.75,3.75,0,1,1,3.75-3.75A3.755,3.755,0,0,1,32,67.569Zm3.75-15a3.75,3.75,0,0,1-7.5,0V33.819a3.75,3.75,0,0,1,7.5,0Z" transform="translate(0 -14.759)" fill="red"/>
      </g>
    </g>
  </g>
</svg>
