<svg xmlns="http://www.w3.org/2000/svg" width="48" height="45.057" viewBox="0 0 48 45.057">
  <g id="shopping-cart" transform="translate(0 -14.83)">
    <path id="Path_69" data-name="Path 69" d="M47,22.531a4.564,4.564,0,0,0-3.533-1.637h-29.5a4.464,4.464,0,0,0-2.342.665l-1.508-5.27A2.007,2.007,0,0,0,8.187,14.83H1.518A1.518,1.518,0,0,0,0,16.348v.159a1.518,1.518,0,0,0,1.518,1.518H7.254l2.928,10.35,4.029,14.28a5.27,5.27,0,0,0,.933,10.37,5.152,5.152,0,1,0,10.013,1.707,5.078,5.078,0,0,0-.288-1.7H30.9a5.154,5.154,0,1,0,4.783-3.463H15.531a1.844,1.844,0,0,1-1.856-1.737,1.8,1.8,0,0,1,1.806-1.876H39.526a4.468,4.468,0,0,0,4.327-3.384l4.009-16.136A4.436,4.436,0,0,0,47,22.531Zm-11.224,30.5a1.7,1.7,0,1,1-1.7,1.7A1.7,1.7,0,0,1,35.775,53.027Zm-15.769,0a1.7,1.7,0,1,1-1.7,1.7A1.7,1.7,0,0,1,20.006,53.027Zm-6.232-24.67L13,25.627a.952.952,0,0,1,.169-.873.977.977,0,0,1,.794-.4H17.2l.883,4.009H13.774v-.01Zm.973,3.453h4.089l.814,3.711h-3.86Zm3.761,10.678a1,1,0,0,1-.963-.734l-.784-2.779H20.4l.774,3.5H18.508Zm8.644,0H24.71l-.774-3.5h3.205v3.5Zm0-6.966h-3.97l-.814-3.711h4.783Zm0-7.165H21.614l-.883-4.009h6.421Zm6.192,14.131H30.615v-3.5h3.463Zm1.469-6.966h-4.2V31.81H35.6Zm-4.2-7.165V24.347h6.55l-.844,4.009Zm9.894,13.377a1,1,0,0,1-.973.764h-2.66l.744-3.5h3.573Zm1.538-6.212h-3.7l.784-3.711h3.84Zm2.461-9.934-.685,2.759h-3.97l.844-4.009h2.838a.952.952,0,0,1,.784.387A.964.964,0,0,1,44.508,25.587Z" fill="red"/>
  </g>
</svg>
