<svg xmlns="http://www.w3.org/2000/svg" width="64" height="48" viewBox="0 0 64 48">
  <g id="book" transform="translate(0 -64.73)">
    <path id="Path_41" data-name="Path 41" d="M5.277,173.592V145.654c-1.375-.055-2.711-.1-3.984-.138A1.257,1.257,0,0,0,0,146.777v32.542a1.258,1.258,0,0,0,1.187,1.259c6.634.359,15.373.742,23.608,2.747a42.152,42.152,0,0,0-17.981-7.875A1.889,1.889,0,0,1,5.277,173.592Z" transform="translate(0 -70.596)" fill="red"/>
    <path id="Path_42" data-name="Path 42" d="M331.938,144.47v28.168A1.89,1.89,0,0,1,330.4,174.5a42.153,42.153,0,0,0-17.981,7.875c8.222-2,16.939-2.386,23.608-2.747a1.258,1.258,0,0,0,1.187-1.259v-32.68a1.258,1.258,0,0,0-1.252-1.261C334.849,144.422,333.481,144.433,331.938,144.47Z" transform="translate(-273.214 -69.642)" fill="red"/>
    <path id="Subtraction_1" data-name="Subtraction 1" d="M24.841,10.376C29.2,4.846,37.339,1.336,44.431.021a1.258,1.258,0,0,1,1.487,1.24V36.721A44.552,44.552,0,0,0,24.841,47.589ZM1,36.721V1.261A1.258,1.258,0,0,1,2.488.021C9.614,1.341,17.71,4.857,22.077,10.376V47.589A44.544,44.544,0,0,0,1,36.721Z" transform="translate(9.041 64.73)" fill="red"/>
  </g>
</svg>
