<svg id="bookshelf" xmlns="http://www.w3.org/2000/svg" width="48" height="48" viewBox="0 0 48 48">
  <g id="Group_118" data-name="Group 118" transform="translate(21.583 21.744)">
    <g id="Group_117" data-name="Group 117">
      <path id="Path_48" data-name="Path 48" d="M232.863,231.933l-2.644.963,3.03,8.325h2.994Z" transform="translate(-230.219 -231.933)" fill="#ddd"/>
    </g>
  </g>
  <g id="Group_120" data-name="Group 120" transform="translate(19.781 25.976)">
    <g id="Group_119" data-name="Group 119">
      <path id="Path_49" data-name="Path 49" d="M211,277.077v5.055h1.84Z" transform="translate(-211 -277.077)" fill="#ddd"/>
    </g>
  </g>
  <g id="Group_122" data-name="Group 122" transform="translate(31.031 8.438)">
    <g id="Group_121" data-name="Group 121">
      <rect id="Rectangle_29" data-name="Rectangle 29" width="2.813" height="5.719" fill="#ddd"/>
    </g>
  </g>
  <g id="Group_124" data-name="Group 124" transform="translate(8.531 8.438)">
    <g id="Group_123" data-name="Group 123">
      <rect id="Rectangle_30" data-name="Rectangle 30" width="2.813" height="5.719" fill="#ddd"/>
    </g>
  </g>
  <g id="Group_126" data-name="Group 126" transform="translate(0 16.969)">
    <g id="Group_125" data-name="Group 125">
      <path id="Path_50" data-name="Path 50" d="M0,181v14.063H5.719v-9.844a1.405,1.405,0,0,1,1.406-1.406h11.25a1.383,1.383,0,0,1,1.171.674l5.04-1.835a1.408,1.408,0,0,1,1.8.84l4.211,11.57h3.244v-9.844a1.405,1.405,0,0,1,1.406-1.406h5.625a1.405,1.405,0,0,1,1.406,1.406v9.844H48V181Z" transform="translate(0 -181)" fill="#ddd"/>
    </g>
  </g>
  <g id="Group_128" data-name="Group 128" transform="translate(36.656 22.594)">
    <g id="Group_127" data-name="Group 127">
      <rect id="Rectangle_31" data-name="Rectangle 31" width="2.813" height="8.438" fill="#ddd"/>
    </g>
  </g>
  <g id="Group_130" data-name="Group 130" transform="translate(14.156 22.594)">
    <g id="Group_129" data-name="Group 129">
      <rect id="Rectangle_32" data-name="Rectangle 32" width="2.813" height="8.438" fill="#ddd"/>
    </g>
  </g>
  <g id="Group_132" data-name="Group 132" transform="translate(8.531 22.594)">
    <g id="Group_131" data-name="Group 131">
      <rect id="Rectangle_33" data-name="Rectangle 33" width="2.813" height="8.438" fill="#ddd"/>
    </g>
  </g>
  <g id="Group_134" data-name="Group 134" transform="translate(25.406 8.438)">
    <g id="Group_133" data-name="Group 133">
      <rect id="Rectangle_34" data-name="Rectangle 34" width="2.813" height="5.719" fill="#ddd"/>
    </g>
  </g>
  <g id="Group_136" data-name="Group 136" transform="translate(36.656 8.438)">
    <g id="Group_135" data-name="Group 135">
      <rect id="Rectangle_35" data-name="Rectangle 35" width="2.813" height="5.719" fill="#ddd"/>
    </g>
  </g>
  <g id="Group_138" data-name="Group 138" transform="translate(25.406 39.469)">
    <g id="Group_137" data-name="Group 137">
      <rect id="Rectangle_36" data-name="Rectangle 36" width="2.813" height="8.531" fill="#ddd"/>
    </g>
  </g>
  <g id="Group_140" data-name="Group 140" transform="translate(0 33.844)">
    <g id="Group_139" data-name="Group 139">
      <path id="Path_51" data-name="Path 51" d="M0,361v12.75a1.405,1.405,0,0,0,1.406,1.406H5.719v-9.937a1.405,1.405,0,0,1,1.406-1.406H12.75a1.405,1.405,0,0,1,1.406,1.406v9.938h8.438v-9.937A1.405,1.405,0,0,1,24,363.813H40.875a1.405,1.405,0,0,1,1.406,1.406v9.938h4.313A1.405,1.405,0,0,0,48,373.75V361Z" transform="translate(0 -361)" fill="#ddd"/>
    </g>
  </g>
  <g id="Group_142" data-name="Group 142" transform="translate(36.656 39.469)">
    <g id="Group_141" data-name="Group 141">
      <rect id="Rectangle_37" data-name="Rectangle 37" width="2.813" height="8.531" fill="#ddd"/>
    </g>
  </g>
  <g id="Group_144" data-name="Group 144" transform="translate(31.031 39.469)">
    <g id="Group_143" data-name="Group 143">
      <rect id="Rectangle_38" data-name="Rectangle 38" width="2.813" height="8.531" fill="#ddd"/>
    </g>
  </g>
  <g id="Group_146" data-name="Group 146" transform="translate(8.531 39.469)">
    <g id="Group_145" data-name="Group 145">
      <rect id="Rectangle_39" data-name="Rectangle 39" width="2.813" height="8.531" fill="#ddd"/>
    </g>
  </g>
  <g id="Group_148" data-name="Group 148" transform="translate(19.781)">
    <g id="Group_147" data-name="Group 147">
      <path id="Path_52" data-name="Path 52" d="M237.813,0H211V14.156h2.813V7.031a1.405,1.405,0,0,1,1.406-1.406h16.875A1.405,1.405,0,0,1,233.5,7.031v7.125h5.719V1.406A1.405,1.405,0,0,0,237.813,0Z" transform="translate(-211)" fill="#ddd"/>
    </g>
  </g>
  <g id="Group_150" data-name="Group 150">
    <g id="Group_149" data-name="Group 149">
      <path id="Path_53" data-name="Path 53" d="M1.406,0A1.405,1.405,0,0,0,0,1.406v12.75H5.719V7.031A1.405,1.405,0,0,1,7.125,5.625H12.75a1.405,1.405,0,0,1,1.406,1.406v7.125h2.813V0Z" fill="#ddd"/>
    </g>
  </g>
</svg>
