<svg xmlns="http://www.w3.org/2000/svg" width="24" height="24" viewBox="0 0 24 24">
  <g id="box" transform="translate(0 -11.351)">
    <path id="Path_3" data-name="Path 3" d="M18.909,14.282,7.24,19.979v3.659L5.2,22.7V19.039l11.669-5.7-3.919-1.81a2.6,2.6,0,0,0-1.908,0L1.394,15.989A2.664,2.664,0,0,0,0,18.223L.024,28.671a2.657,2.657,0,0,0,1.425,2.237l9.626,4.273a2.605,2.605,0,0,0,1.846,0l9.629-4.274a2.656,2.656,0,0,0,1.425-2.237L24,18.223a2.664,2.664,0,0,0-1.394-2.234Zm2.91,8.363-.565.272-.011,4.128a.593.593,0,0,1-.342.479l-.846.379c-.185.083-.335.006-.335-.172l0-4.073-.547.264c-.257.124-.418-.07-.291-.35l1.308-2.865c.132-.289.463-.456.6-.3L22.124,22C22.258,22.154,22.088,22.515,21.819,22.645ZM16.3,29.274a.549.549,0,0,1-.314.455l-.784.352c-.172.077-.313,0-.315-.169l-.046-3.9-.507.244c-.239.115-.391-.074-.275-.34l1.189-2.724c.12-.275.426-.429.551-.277l1.267,1.541c.127.154-.028.5-.277.617l-.523.252Zm6.455-1.133a.3.3,0,0,1-.175.24l-8.957,3.908c-.084.036-.152,0-.154-.085l-.007-.455a.26.26,0,0,1,.149-.219l8.973-3.969c.1-.043.174,0,.173.087Z" transform="translate(0)" fill="red"/>
  </g>
</svg>
