<svg xmlns="http://www.w3.org/2000/svg" width="63.956" height="64" viewBox="0 0 63.956 64">
  <g id="price" transform="translate(-0.008)">
    <path id="Path_64" data-name="Path 64" d="M63.964,12.276a35.5,35.5,0,0,1-4.417,17.082A1.9,1.9,0,0,1,56.3,27.384a32.184,32.184,0,0,0,3.865-15.108c0-4.912-3.194-8.478-7.6-8.478a7.6,7.6,0,0,0-7.6,7.6,60.075,60.075,0,0,0,1.2,7.918,1.9,1.9,0,0,1-3.719.777,62.441,62.441,0,0,1-1.28-8.7A11.411,11.411,0,0,1,52.57,0C59.064,0,63.964,5.276,63.964,12.276ZM52.892,15.264c.755,6.311,1.85,18.609.592,19.862l-27.6,27.6a4.346,4.346,0,0,1-6.15,0L1.282,44.273a4.349,4.349,0,0,1,0-6.15l27.6-27.6c.438-.438,5.212-.458,10.58-.178-.03.354-.106.688-.106,1.05a37.594,37.594,0,0,0,.624,5.388,5.223,5.223,0,1,0,7.3-1.362,31.834,31.834,0,0,1-.5-4.026c0-.168.035-.324.05-.49.661.069,1.312.141,1.929.218C52.409,11.573,52.446,11.565,52.892,15.264ZM38.182,35.919a11.9,11.9,0,0,0-2.689-4.264l2.095-2.1-2.332-2.33-2.261,2.263c-3.026-2.072-6.145-1.9-8.262.213-2.308,2.308-1.763,5.237-.069,8.641,1.164,2.357,1.377,3.714.473,4.618-.928.928-2.426.525-3.786-.832a11.879,11.879,0,0,1-2.9-5l-3.5,2.075a13.642,13.642,0,0,0,3.045,5.044L15.71,46.534l2.33,2.332,2.454-2.451c3.236,2.283,6.5,1.976,8.616-.141,2.166-2.171,2.357-4.6.5-8.453-1.288-2.763-1.6-4.12-.834-4.88.669-.669,1.857-.859,3.4.688a10.467,10.467,0,0,1,2.595,4.264Z" fill="red"/>
  </g>
</svg>
