<svg xmlns="http://www.w3.org/2000/svg" width="11.999" height="12" viewBox="0 0 11.999 12">
  <path id="Объединение_34" data-name="Объединение 34" d="M5478.77-5657.869l-3.149-3.148-3.148,3.148a1.67,1.67,0,0,1-2.362,0,1.67,1.67,0,0,1,0-2.36l3.149-3.149-3.149-3.149a1.672,1.672,0,0,1,0-2.362,1.669,1.669,0,0,1,2.362,0l3.149,3.148,3.148-3.148a1.672,1.672,0,0,1,2.362,0,1.671,1.671,0,0,1,0,2.362l-3.148,3.148,3.148,3.149a1.671,1.671,0,0,1,0,2.362,1.664,1.664,0,0,1-1.181.489A1.664,1.664,0,0,1,5478.77-5657.869Z" transform="translate(-5469.621 5669.379)" fill="#fff"/>
</svg>
