<svg xmlns="http://www.w3.org/2000/svg" width="10.779" height="10.778" viewBox="0 0 10.779 10.778">
  <path id="Объединение_32" data-name="Объединение 32" d="M5477.839-5659.041l-2.829-2.828-2.829,2.828a1.5,1.5,0,0,1-2.122,0,1.5,1.5,0,0,1,0-2.12l2.829-2.829-2.829-2.828a1.5,1.5,0,0,1,0-2.122,1.5,1.5,0,0,1,2.122,0l2.829,2.828,2.828-2.828a1.5,1.5,0,0,1,2.122,0,1.5,1.5,0,0,1,0,2.122l-2.829,2.828,2.829,2.828a1.5,1.5,0,0,1,0,2.122,1.5,1.5,0,0,1-1.061.439A1.5,1.5,0,0,1,5477.839-5659.041Z" transform="translate(-5469.621 5669.379)" fill="#fe0000"/>
</svg>
