<svg xmlns="http://www.w3.org/2000/svg" width="48" height="30.938" viewBox="0 0 48 30.938">
  <g id="coupon" transform="translate(0 -91)">
    <g id="Group_152" data-name="Group 152" transform="translate(36.75 110.688)">
      <g id="Group_151" data-name="Group 151">
        <path id="Path_54" data-name="Path 54" d="M393.406,301a1.406,1.406,0,1,0,1.406,1.406A1.407,1.407,0,0,0,393.406,301Z" transform="translate(-392 -301)" fill="#ddd"/>
      </g>
    </g>
    <g id="Group_154" data-name="Group 154" transform="translate(0 91)">
      <g id="Group_153" data-name="Group 153">
        <path id="Path_55" data-name="Path 55" d="M46.594,91H14.179v4.219a1.406,1.406,0,0,1-2.812,0V91H1.406A1.405,1.405,0,0,0,0,92.406v8.438a1.405,1.405,0,0,0,1.406,1.406,4.219,4.219,0,0,1,0,8.438A1.405,1.405,0,0,0,0,112.094v8.438a1.405,1.405,0,0,0,1.406,1.406H11.25v-4.219a1.406,1.406,0,0,1,2.813,0v4.219H46.594A1.405,1.405,0,0,0,48,120.531V92.406A1.405,1.405,0,0,0,46.594,91ZM14.063,112.094a1.406,1.406,0,0,1-2.812,0v-2.812a1.406,1.406,0,0,1,2.813,0Zm0-8.437a1.406,1.406,0,0,1-2.812,0v-2.812a1.406,1.406,0,0,1,2.813,0Zm8.625-2.812a4.219,4.219,0,1,1,4.219,4.219A4.223,4.223,0,0,1,22.688,100.844Zm3.439,15.232a1.405,1.405,0,0,1-.39-1.95l11.25-16.875a1.406,1.406,0,0,1,2.34,1.56l-11.25,16.875A1.407,1.407,0,0,1,26.126,116.076Zm12.03.236a4.219,4.219,0,1,1,4.219-4.219A4.223,4.223,0,0,1,38.156,116.313Z" transform="translate(0 -91)" fill="#ddd"/>
      </g>
    </g>
    <g id="Group_156" data-name="Group 156" transform="translate(25.5 99.438)">
      <g id="Group_155" data-name="Group 155">
        <path id="Path_56" data-name="Path 56" d="M273.406,181a1.406,1.406,0,1,0,1.406,1.406A1.407,1.407,0,0,0,273.406,181Z" transform="translate(-272 -181)" fill="#ddd"/>
      </g>
    </g>
  </g>
</svg>
