<svg xmlns="http://www.w3.org/2000/svg" width="48" height="28.406" viewBox="0 0 48 28.406">
  <path id="delivery" d="M34.218.283c4.162.966,5.754,3.4,7.749,6.749H34.218ZM9.9,7.313A1.235,1.235,0,0,1,11.3,8.625a1.406,1.406,0,0,1-1.4,1.406h-8.5a1.406,1.406,0,1,0,0,2.812H14.062a1.406,1.406,0,1,1,.005,2.812H1.406a1.406,1.406,0,0,0,0,2.813H4.5v4.219a1.406,1.406,0,0,0,1.406,1.406H8.733a5.392,5.392,0,0,0,10.565,0H33.576a5.392,5.392,0,0,0,10.565,0h2.452A1.406,1.406,0,0,0,48,22.688V14.25c0-4.126-4.352-4.4-4.356-4.406H32.812a1.406,1.406,0,0,1-1.406-1.406V0H5.906A1.406,1.406,0,0,0,4.5,1.406V4.5H2.812a1.406,1.406,0,0,0,0,2.812Zm30.784,13.88a2.578,2.578,0,1,1-4.4,1.823A2.579,2.579,0,0,1,40.682,21.193Zm-24.844,0a2.578,2.578,0,1,1-4.4,1.823A2.579,2.579,0,0,1,15.838,21.193Zm0,0" transform="translate(0.001)" fill="#ddd" fill-rule="evenodd"/>
</svg>
