<svg id="Group_112" data-name="Group 112" xmlns="http://www.w3.org/2000/svg" width="64" height="64" viewBox="0 0 64 64">
  <g id="ruler" transform="translate(0 0)">
    <g id="Group_70" data-name="Group 70" transform="translate(0.226 34.52)">
      <g id="Group_69" data-name="Group 69">
        <path id="Path_20" data-name="Path 20" d="M18.856,288.085l6.628,6.628,5.3-5.3L17.523,276.16,3.457,290.737a5.62,5.62,0,0,0,0,7.954L8.249,304a5.633,5.633,0,0,0,7.954,0l1.327-1.327-3.978-3.978a1.875,1.875,0,0,1,2.651-2.651l3.978,3.978,2.652-2.652L16.2,290.737a1.875,1.875,0,0,1,2.651-2.651Z" transform="translate(-1.808 -276.16)" fill="red"/>
      </g>
    </g>
    <g id="Group_72" data-name="Group 72" transform="translate(34.501)">
      <g id="Group_71" data-name="Group 71">
        <path id="Path_21" data-name="Path 21" d="M303.857,6.671l-5.3-5.028a5.633,5.633,0,0,0-7.954,0L276.007,15.959l13.258,13.258,5.312-5.312-6.629-6.629a1.875,1.875,0,1,1,2.651-2.651l6.629,6.629L299.88,18.6,295.9,14.625a1.875,1.875,0,0,1,2.651-2.651l3.977,3.977,1.326-1.326A5.621,5.621,0,0,0,303.857,6.671Z" transform="translate(-276.007 0)" fill="red"/>
      </g>
    </g>
    <g id="Group_74" data-name="Group 74" transform="translate(0 0)">
      <g id="Group_73" data-name="Group 73">
        <path id="Path_22" data-name="Path 22" d="M3.043.215C3.016.2,2.99.19,2.963.179A2.13,2.13,0,0,0,.591.635,2.4,2.4,0,0,0,.172,3.087l3.944,8.122A7.335,7.335,0,0,0,8.439,9.564,7.4,7.4,0,0,0,11.117,4.1Z" transform="translate(0 0)" fill="red"/>
      </g>
    </g>
    <g id="Group_76" data-name="Group 76" transform="translate(5.847 5.851)">
      <g id="Group_75" data-name="Group 75">
        <path id="Path_23" data-name="Path 23" d="M55.657,46.808a11.15,11.15,0,0,1-8.885,8.928l3.317,6.843,12.44-12.441Z" transform="translate(-46.772 -46.808)" fill="red"/>
      </g>
    </g>
    <g id="Group_78" data-name="Group 78" transform="translate(41.349 41.37)">
      <g id="Group_77" data-name="Group 77" transform="translate(0 0)">
        <rect id="Rectangle_25" data-name="Rectangle 25" width="18.75" height="3.751" transform="translate(0 13.258) rotate(-45)" fill="red"/>
      </g>
    </g>
    <g id="Group_80" data-name="Group 80" transform="translate(11.406 11.425)">
      <g id="Group_79" data-name="Group 79">
        <path id="Path_24" data-name="Path 24" d="M104.506,91.4,91.25,104.654l27.292,27.294L131.8,118.69Z" transform="translate(-91.25 -91.397)" fill="red"/>
      </g>
    </g>
    <g id="Group_82" data-name="Group 82" transform="translate(46.653 46.672)">
      <g id="Group_81" data-name="Group 81">
        <path id="Path_25" data-name="Path 25" d="M387.811,374.7l-1.326-1.326-13.259,13.259,1.326,1.326A9.375,9.375,0,0,0,387.811,374.7Z" transform="translate(-373.227 -373.378)" fill="red"/>
      </g>
    </g>
  </g>
</svg>
