<svg xmlns="http://www.w3.org/2000/svg" width="237.814" height="45" viewBox="0 0 237.814 45">
  <g id="Слой_x0020_1" transform="translate(0 0)">
    <g id="_2269792824096" transform="translate(0 0)">
      <path id="Path_59" data-name="Path 59" d="M23.731,40.468c.03-5.313.019-10.694.007-16.075-.012-5.724-.025-11.448.014-17.09a11.429,11.429,0,0,0-9.294-5.891c-3.831-.353-8.29.641-13.035,2.251A165.277,165.277,0,0,1,2.465,22.027c.014,5.913-.264,11.79-.771,17.636q.539-.17,1.067-.324c.384-3.983.7-7.94.858-11.841a99.838,99.838,0,0,0-.183-12.024L4.37,15.4a100.644,100.644,0,0,1,.183,12.136c-.15,3.8-.456,7.655-.827,11.533a34.3,34.3,0,0,1,10.446-1.3A20.213,20.213,0,0,1,23.731,40.468Zm8.406-.953a33.925,33.925,0,0,1,4.952-.134A34.2,34.2,0,0,1,49.539,42.2l-.4.846a33.209,33.209,0,0,0-12.095-2.73,31.5,31.5,0,0,0-6.6.373,29.86,29.86,0,0,1,6.119-.137,38.2,38.2,0,0,1,12.794,3.264L48.805,45a36.863,36.863,0,0,0-12.339-3.142,25.375,25.375,0,0,0-11.1,1.423,24.288,24.288,0,0,0-10.767-1.5,34.911,34.911,0,0,0-12.09,2.98l-.553-1.184a36.277,36.277,0,0,1,12.561-3.1,31.334,31.334,0,0,1,4.823.05,30.408,30.408,0,0,0-6.152-.29A33.416,33.416,0,0,0,1.166,43.045l-.4-.846a34.385,34.385,0,0,1,12.374-2.893,33.288,33.288,0,0,1,3.363,0,22.656,22.656,0,0,0-2.392-.234A35.81,35.81,0,0,0,1.164,41.212l-.95.32.09-1c.559-6.134.868-12.3.853-18.506A163.635,163.635,0,0,0,.061,3.291L0,2.773.5,2.6C5.587.835,10.4-.274,14.576.111A12.682,12.682,0,0,1,24.961,6.775l.007-.012A12.688,12.688,0,0,1,35.366.076C39.544-.309,44.355.8,49.443,2.564l.5.173-.061.519a163.409,163.409,0,0,0-1.1,18.736c-.015,6.2.3,12.371.853,18.506l.09,1-.95-.32A35.759,35.759,0,0,0,35.792,39.05a22.2,22.2,0,0,0-3.655.466ZM46.3,39.057c-.376-3.926-.69-7.827-.841-11.675a100.629,100.629,0,0,1,.184-12.135l.934.073a99.465,99.465,0,0,0-.183,12.025c.155,3.947.481,7.953.871,11.983q.487.143.982.3c-.507-5.847-.785-11.723-.771-17.636A165.046,165.046,0,0,1,48.519,3.629c-4.745-1.61-9.2-2.6-13.035-2.251a11.431,11.431,0,0,0-9.3,5.891c.039,5.644,0,11.376-.035,17.108-.034,5.387-.07,10.775-.042,16.088a20.449,20.449,0,0,1,9.625-2.722A34.471,34.471,0,0,1,46.3,39.057Z" transform="translate(0 0)" fill="red"/>
      <path id="Path_60" data-name="Path 60" d="M618.563,79.11l-.034,1.612.034.632.9,11.7.916-1.606q2.035-3.589,3.84-6.268a42.38,42.38,0,0,1,3.387-4.464,13.974,13.974,0,0,1,3.077-2.684,5.671,5.671,0,0,1,2.931-.92,2.413,2.413,0,0,1,1.354.32,1.192,1.192,0,0,1,.531,1.054,1.289,1.289,0,0,1-.136.6,1.049,1.049,0,0,1-.42.431,2.394,2.394,0,0,1-.651.232,7.636,7.636,0,0,1-.923.14,9.482,9.482,0,0,0-1.352.226,5.037,5.037,0,0,0-1.026.369,5.741,5.741,0,0,0-1.128.844q-.722.649-1.705,1.714a27.34,27.34,0,0,0-2.032,2.51q-1.055,1.457-2.174,3.289-1.135,1.866-2.6,4.442-1.433,2.523-3.16,5.7a20.177,20.177,0,0,1-1.894,2.942,5.952,5.952,0,0,1-1.781,1.6,8.266,8.266,0,0,1-1.629.64,6.143,6.143,0,0,1-1.587.215,5.828,5.828,0,0,1-1.531-.191,4.428,4.428,0,0,1-1.3-.583,3.078,3.078,0,0,1-.909-.873,1.961,1.961,0,0,1-.325-1.08,1.283,1.283,0,0,1,.1-.5,1.473,1.473,0,0,1,.285-.437,1.369,1.369,0,0,1,.416-.314,1.162,1.162,0,0,1,.5-.111,2.094,2.094,0,0,1,1.454.783,6.2,6.2,0,0,0,1.325,1.082,2.237,2.237,0,0,0,1.1.339,2.967,2.967,0,0,0,2.123-1.125,12.857,12.857,0,0,0,2.135-3.513L615.42,80.856h-.169a8.273,8.273,0,0,0-2.892.491,7.472,7.472,0,0,0-2.412,1.473,6.964,6.964,0,0,0-1.631,2.09,5.255,5.255,0,0,0-.535,2.325,5.733,5.733,0,0,0,.773,2.629,4.135,4.135,0,0,1,.265.592,1.629,1.629,0,0,1,.1.515,1.12,1.12,0,0,1-.111.492,1.31,1.31,0,0,1-.312.4l0,0a1.41,1.41,0,0,1-.447.264,1.549,1.549,0,0,1-.523.088,1.348,1.348,0,0,1-.875-.31,2.107,2.107,0,0,1-.586-.835,4.992,4.992,0,0,1-.33-1.112,7.09,7.09,0,0,1-.11-1.28,8.762,8.762,0,0,1,.682-3.42,10.386,10.386,0,0,1,2.035-3.066A8.61,8.61,0,0,1,611.646,80a12.539,12.539,0,0,1,4.426-.725,5.572,5.572,0,0,0,1.187-.113,2.674,2.674,0,0,0,.838-.322l.479-.3-.012.564Zm14.8,10.287-1.021-.807.264-.243a20.929,20.929,0,0,1,3.178-2.49A4.971,4.971,0,0,1,638.217,85a1.194,1.194,0,0,1,.911.36,1.636,1.636,0,0,1,.392.969l1.053,9.608,6.618-10.523h2.943l-1.706,6.261q-.684,2.556-1.029,4.006a11.661,11.661,0,0,0-.336,1.745.557.557,0,0,0,.06.309.148.148,0,0,0,.121.039q.483,0,2.561-2.079l.228-.228.962,1.071-.2.206a21.683,21.683,0,0,1-2.971,2.672,4.161,4.161,0,0,1-2.224.934,1.526,1.526,0,0,1-1.089-.5,1.643,1.643,0,0,1-.389-.612,2.273,2.273,0,0,1-.125-.774,11.642,11.642,0,0,1,.3-2.039q.294-1.409.885-3.661l.518-2-5.872,9.422H638.1l-.969-8.72q-.924,2.566-1.7,4.248a10.744,10.744,0,0,1-1.754,2.9,5.566,5.566,0,0,1-1.644,1.174,4.412,4.412,0,0,1-1.843.4,2.636,2.636,0,0,1-.888-.139,1.721,1.721,0,0,1-.684-.435,1.96,1.96,0,0,1-.412-.608,1.821,1.821,0,0,1-.141-.709,1.858,1.858,0,0,1,.479-1.263,1.624,1.624,0,0,1,.558-.416,1.641,1.641,0,0,1,.68-.141,2.087,2.087,0,0,1,.521.075,4.193,4.193,0,0,1,.592.208,4.972,4.972,0,0,0,.532.178,1.255,1.255,0,0,0,.3.055,1.149,1.149,0,0,0,.59-.18,2.792,2.792,0,0,0,.675-.6,8.117,8.117,0,0,0,.888-1.493q.553-1.11,1.278-2.873T636.252,89a5.573,5.573,0,0,0,.35-1.351.2.2,0,0,0-.013-.1c-.009-.01-.042-.014-.1-.014a2.139,2.139,0,0,0-1.073.432,11.07,11.07,0,0,0-1.649,1.407l-.192.192Zm33.275,7.312a21.759,21.759,0,0,1-3,2.693,4.219,4.219,0,0,1-2.249.942,1.389,1.389,0,0,1-.593-.133,1.789,1.789,0,0,1-.519-.377,1.657,1.657,0,0,1-.38-.611,2.276,2.276,0,0,1-.122-.763,7.162,7.162,0,0,1,.087-1.04q.084-.563.256-1.269l.731-2.934h-3.97l-1.584,6.542h-3.111l.063-.357c.012-.076.054-.253.125-.525L652.6,98c.08-.287.2-.722.345-1.3l.543-2.153,1.5-6c.037-.161.065-.294.082-.4a1.9,1.9,0,0,0,.024-.272.423.423,0,0,0-.031-.2s0,.007-.011.007a1.806,1.806,0,0,0-.848.393,12.949,12.949,0,0,0-1.535,1.311l-.19.183-1.236-.95.267-.246a21.273,21.273,0,0,1,3.166-2.5A4.875,4.875,0,0,1,657.079,85a1.109,1.109,0,0,1,.94.428,1.8,1.8,0,0,1,.3,1.107,11.433,11.433,0,0,1-.278,1.994q-.249,1.225-.717,3.048h3.95l1.64-6.163h3.062l-1.687,6.261q-.709,2.6-1.045,4.008a11.4,11.4,0,0,0-.339,1.743.556.556,0,0,0,.06.309.148.148,0,0,0,.121.039,2,2,0,0,0,.81-.484,21.1,21.1,0,0,0,1.751-1.628l.229-.232.962,1.08ZM679.06,84.721l1.622-.331-1.4,4.739q-.377,1.275-.731,2.729t-.688,3.1q-.182.886-.271,1.458a5.776,5.776,0,0,0-.088.8.353.353,0,0,0,.034.194c.008.01.034.015.078.015a.724.724,0,0,0,.232-.065,3.559,3.559,0,0,0,.455-.234,10.014,10.014,0,0,0,.983-.666,11.356,11.356,0,0,0,.943-.809l.237-.227.517.629,1.077-.369.086.314c.144.528.265.938.361,1.228a3.123,3.123,0,0,0,.228.567l0,0a.359.359,0,0,0,.135.132.482.482,0,0,0,.224.046,1.032,1.032,0,0,0,.644-.348,5.929,5.929,0,0,0,.925-1.232,16.661,16.661,0,0,1,1-1.5,5.655,5.655,0,0,1,.9-.96,4.6,4.6,0,0,1,1.1-.621q.193-.08.409-.157a6.873,6.873,0,0,1-1.127-.18,3.921,3.921,0,0,1-1.439-.665,3.076,3.076,0,0,1-.886-1.012,2.64,2.64,0,0,1-.3-1.253,3.092,3.092,0,0,1,.644-1.9,5.372,5.372,0,0,1,1.85-1.474,10.145,10.145,0,0,1,2.785-.952,18.039,18.039,0,0,1,3.514-.312,33.953,33.953,0,0,0,3.409.078l-1.685,6.218q-.684,2.533-1.031,3.986a11.7,11.7,0,0,0-.336,1.73.581.581,0,0,0,.06.312.12.12,0,0,0,.1.035c.318,0,1.175-.693,2.561-2.079l.23-.229.954,1.074-.2.2a21.7,21.7,0,0,1-2.966,2.67,4.146,4.146,0,0,1-2.217.935,1.474,1.474,0,0,1-.646-.143,1.608,1.608,0,0,1-.525-.422,1.817,1.817,0,0,1-.343-.675,3.164,3.164,0,0,1-.107-.861,6.8,6.8,0,0,1,.09-1.043,10.887,10.887,0,0,1,.261-1.188l.666-2.5a3.29,3.29,0,0,0-.774.162,2.581,2.581,0,0,0-.9.536,7.324,7.324,0,0,0-.965,1.173q-.562.81-1.243,2.017a7.337,7.337,0,0,1-1.769,2.182,3.315,3.315,0,0,1-2.072.763,2.388,2.388,0,0,1-.857-.154,2.5,2.5,0,0,1-.756-.46,3.09,3.09,0,0,1-.707-1.173,13.9,13.9,0,0,1-.482-1.519q-.759.682-1.258,1.11a9.569,9.569,0,0,1-1.986,1.38,7.9,7.9,0,0,1-1.036.46,4.536,4.536,0,0,1-.677.188,3.56,3.56,0,0,1-.67.066,1.6,1.6,0,0,1-.468-.065,1.039,1.039,0,0,1-.39-.214l0,0a.92.92,0,0,1-.241-.365,1.261,1.261,0,0,1-.076-.445,1.934,1.934,0,0,1,.041-.355,3.964,3.964,0,0,1,.109-.419l.3-1c-.23.227-.468.445-.713.657a15.249,15.249,0,0,1-1.9,1.392,6.01,6.01,0,0,1-1.24.608,3.634,3.634,0,0,1-1.173.21,2.347,2.347,0,0,1-.991-.2,1.971,1.971,0,0,1-.75-.609,4.208,4.208,0,0,1-.769-2.613,8.469,8.469,0,0,1,.245-1.956,12.933,12.933,0,0,1,.729-2.137,15.082,15.082,0,0,1,1.135-2.13,14.9,14.9,0,0,1,1.465-1.925,13.163,13.163,0,0,1,1.678-1.586A9.571,9.571,0,0,1,674,85.974a6.616,6.616,0,0,1,1.631-.5,11.107,11.107,0,0,1,2-.166c.181,0,.369.007.561.018l.371.031.375-.607.129-.027Zm-2.4,3.14c-.174-.031-.338-.055-.491-.074a5.651,5.651,0,0,0-.656-.044,4.38,4.38,0,0,0-1.32.192,3.814,3.814,0,0,0-1.132.579,4.666,4.666,0,0,0-1.016,1.1,10.857,10.857,0,0,0-.975,1.778,11.064,11.064,0,0,0-.7,2.1,9.625,9.625,0,0,0-.232,2.091,4.1,4.1,0,0,0,.087.914,1.419,1.419,0,0,0,.234.548.986.986,0,0,0,.338.291.961.961,0,0,0,.429.092,2.349,2.349,0,0,0,1.057-.279,5.251,5.251,0,0,0,1.212-.888,5.718,5.718,0,0,0,1.089-1.452,9.107,9.107,0,0,0,.771-2.013Zm16.348-.371a7.186,7.186,0,0,0-.712-.128,8.984,8.984,0,0,0-1.129-.067,3.956,3.956,0,0,0-2.385.773,2.513,2.513,0,0,0-.771.85,2.235,2.235,0,0,0-.251,1.06,1.741,1.741,0,0,0,.651,1.49,3.576,3.576,0,0,0,2.137.517c.168,0,.375-.01.619-.029q.3-.023.666-.062Zm36.251-7.83-.149.592-.178.044a10.743,10.743,0,0,0-1.208.369,6.723,6.723,0,0,0-.964.444,9.669,9.669,0,0,0-1.028.7q-.589.45-1.319,1.1-2.032,1.772-3.8,3.131-1.6,1.232-2.986,2.128c.214.281.416.576.606.883a11.971,11.971,0,0,1,.687,1.282q.31.667.842,2.2t1.278,3.883a27.138,27.138,0,0,0,1.338,3.491A8.41,8.41,0,0,0,723.714,102a5.1,5.1,0,0,0,1.327,1.049,2.794,2.794,0,0,0,1.3.335,1.55,1.55,0,0,0,.983-.3,2.017,2.017,0,0,0,.627-.968,6.984,6.984,0,0,1,.294-.739,1.5,1.5,0,0,1,.315-.465,1.4,1.4,0,0,1,.409-.256,1.23,1.23,0,0,1,.464-.09,1.3,1.3,0,0,1,.487.092,1.3,1.3,0,0,1,.7.673,1.188,1.188,0,0,1,.1.482,2.163,2.163,0,0,1-.344,1.146,4.069,4.069,0,0,1-.967,1.034,4.523,4.523,0,0,1-1.451.756,5.892,5.892,0,0,1-1.762.251,6.189,6.189,0,0,1-1.62-.212,6.558,6.558,0,0,1-1.531-.631,7.023,7.023,0,0,1-1.42-1.083,10.129,10.129,0,0,1-1.276-1.542,14.665,14.665,0,0,1-1.216-2.244q-.607-1.355-1.226-3.172-.566-1.693-1.009-2.869t-.737-1.777a12.837,12.837,0,0,0-.728-1.269q-.272-.42-.6-.859l-1.647,6.174q-.27,1.012-.435,1.725-.131.566-.2.951a5.942,5.942,0,0,0,.807.263,3.768,3.768,0,0,0,.89.114l.245-.008.774-.059-.366,1.458-.66.03q-.289,0-.7-.03c-.257-.019-.564-.049-.914-.088s-.653-.062-.94-.079-.552-.027-.784-.027a15.76,15.76,0,0,0-1.766.127q-1.092.129-2.59.385l-.4.07.174-1.42.218-.043a7.8,7.8,0,0,0,1.312-.364,2.743,2.743,0,0,0,.8-.451,2.515,2.515,0,0,0,.523-.646,4.954,4.954,0,0,0,.425-.984q.441-1.359,1.02-3.393.584-2.052,1.3-4.763l1.944-7.357a13,13,0,0,0-2.484.432,7.739,7.739,0,0,0-2.2.989,3.7,3.7,0,0,0-1.034.964,1.737,1.737,0,0,0-.321.992,1.127,1.127,0,0,0,.083.385,3.213,3.213,0,0,0,.282.554,3.667,3.667,0,0,1,.31.594,1.508,1.508,0,0,1,.117.538,1.392,1.392,0,0,1-.107.539,1.57,1.57,0,0,1-.772.791,1.318,1.318,0,0,1-.542.112,1.289,1.289,0,0,1-.641-.171,1.756,1.756,0,0,1-.524-.47,2.1,2.1,0,0,1-.356-.706,3.038,3.038,0,0,1-.115-.858,4.825,4.825,0,0,1,.619-2.37A7.185,7.185,0,0,1,708,81.156a8.174,8.174,0,0,1,3.314-1.467,22.391,22.391,0,0,1,4.98-.477h1.534l-.158.414q-.466,1.227-.755,2.062-.3.853-.445,1.4l-1.17,4.487c.24-.111.489-.24.749-.384q.707-.393,1.531-.957t1.61-1.168q.792-.6,1.551-1.24,1.376-1.157,2.195-1.892a9.114,9.114,0,0,0,.948-.927l.019-.029-.091-.033a3.028,3.028,0,0,0-.58-.075c-.326-.024-.747-.042-1.26-.052l-.372-.009.345-1.556.269.026q1.056.1,1.945.154.862.05,1.55.05t1.5-.05q.81-.051,1.725-.154l.436-.049-.106.426Zm14.081,17.05a21.819,21.819,0,0,1-3,2.693,4.222,4.222,0,0,1-2.249.942,1.392,1.392,0,0,1-.593-.132,1.81,1.81,0,0,1-.519-.378,1.672,1.672,0,0,1-.381-.611,2.282,2.282,0,0,1-.121-.763,7.2,7.2,0,0,1,.088-1.041q.083-.563.255-1.268l.732-2.934h-3.971l-1.585,6.542h-3.109l.062-.357c.012-.076.054-.253.125-.525L729.3,98c.08-.29.2-.733.349-1.324l.537-2.133,1.5-6c.037-.161.065-.294.081-.4a1.785,1.785,0,0,0,.025-.272.423.423,0,0,0-.031-.2s0,.007-.012.007a1.8,1.8,0,0,0-.847.393,12.857,12.857,0,0,0-1.535,1.309l-.19.185-1.235-.95.266-.246a21.274,21.274,0,0,1,3.166-2.5A4.872,4.872,0,0,1,733.781,85a1.111,1.111,0,0,1,.941.428,1.8,1.8,0,0,1,.294,1.107,11.433,11.433,0,0,1-.278,1.994q-.249,1.225-.718,3.048h3.951l1.64-6.163h3.062l-1.688,6.261q-.706,2.6-1.044,4.008a11.271,11.271,0,0,0-.339,1.743.556.556,0,0,0,.06.309.147.147,0,0,0,.121.039,1.984,1.984,0,0,0,.81-.484,20.8,20.8,0,0,0,1.75-1.628l.23-.232.961,1.08Zm12.376-11.266h2.816l-1.695,6.267q-.7,2.552-1.052,4.012a11.34,11.34,0,0,0-.343,1.739.66.66,0,0,0,.023.19.259.259,0,0,0,.042.083.289.289,0,0,0,.075.06l.041.01a.611.611,0,0,0,.208-.044,1.558,1.558,0,0,0,.3-.16,8.588,8.588,0,0,0,.777-.661q.517-.48,1.277-1.247l.229-.231.954,1.074-.2.2A21.855,21.855,0,0,1,756.2,99.41a4.159,4.159,0,0,1-2.22.934,1.487,1.487,0,0,1-1.137-.512,1.634,1.634,0,0,1-.35-.606,2.485,2.485,0,0,1-.11-.766,6.987,6.987,0,0,1,.1-1.068l.042-.251q-.447.436-.944.84a16.3,16.3,0,0,1-2.062,1.425,7.871,7.871,0,0,1-1.421.672,3.979,3.979,0,0,1-1.27.232,1.633,1.633,0,0,1-.646-.124,1.389,1.389,0,0,1-.508-.373,1.553,1.553,0,0,1-.318-.621,3.031,3.031,0,0,1-.1-.807,6.721,6.721,0,0,1,.041-.713c.027-.24.068-.493.121-.759q.113-.554.392-1.617.284-1.083.733-2.67.562-2.009.848-3.236a8.945,8.945,0,0,0,.276-1.554.381.381,0,0,0-.025-.176c-.006-.008,0,.012,0,.012a.754.754,0,0,0-.25.056,2.72,2.72,0,0,0-.417.2,5.907,5.907,0,0,0-.665.5q-.439.367-1.053.943l-.2.184-1.209-.978.268-.24q1.132-1.014,1.993-1.677a11.083,11.083,0,0,1,1.494-1,7.4,7.4,0,0,1,1.114-.493,3.031,3.031,0,0,1,.929-.174,1.18,1.18,0,0,1,.491.1,1.114,1.114,0,0,1,.4.3,1.312,1.312,0,0,1,.251.5,2.4,2.4,0,0,1,.075.625,11.627,11.627,0,0,1-.312,2.075q-.309,1.44-.92,3.721-.54,2.042-.811,3.2a9.394,9.394,0,0,0-.263,1.388.648.648,0,0,0,.036.222.572.572,0,0,0,.107.18.578.578,0,0,0,.152.123.241.241,0,0,0,.115.03,2.081,2.081,0,0,0,.984-.348,9.226,9.226,0,0,0,1.474-1.127,7.871,7.871,0,0,0,1.375-1.6,6.421,6.421,0,0,0,.8-1.794l1.885-7.148h.235ZM771,87.826a4.531,4.531,0,0,1-.2,1.305,6.716,6.716,0,0,1-.59,1.358,6.139,6.139,0,0,1-1.413,1.556,21.166,21.166,0,0,1-2.528,1.762q-1.466.9-2.353,1.5a12.151,12.151,0,0,0-1.239.914,2.149,2.149,0,0,0-.479.612,1.408,1.408,0,0,0-.149.632.969.969,0,0,0,.358.832,2.153,2.153,0,0,0,1.27.3,2.681,2.681,0,0,0,.7-.082,1.469,1.469,0,0,0,.5-.234,2.3,2.3,0,0,0,.431-.445,4.845,4.845,0,0,0,.437-.718,7.773,7.773,0,0,1,.486-.846,2.736,2.736,0,0,1,.479-.562,1.664,1.664,0,0,1,.565-.315,2.163,2.163,0,0,1,.677-.1,1.207,1.207,0,0,1,.912.334,1.286,1.286,0,0,1,.318.93,2.145,2.145,0,0,1-.465,1.277,5.3,5.3,0,0,1-1.293,1.179,6.543,6.543,0,0,1-1.818.872,7,7,0,0,1-2.034.29,5.08,5.08,0,0,1-3.021-.753,2.707,2.707,0,0,1-1.073-2.33,3.954,3.954,0,0,1,.275-1.466,4.453,4.453,0,0,1,.812-1.3,11.291,11.291,0,0,1,1.5-1.338q.966-.743,2.367-1.643,1.326-.843,2.2-1.475a12.423,12.423,0,0,0,1.309-1.05,3.044,3.044,0,0,0,.583-.768,1.569,1.569,0,0,0,.181-.709.686.686,0,0,0-.14-.488.636.636,0,0,0-.467-.141,1.719,1.719,0,0,0-.755.266,8.964,8.964,0,0,0-1.255.887l0,0a5.137,5.137,0,0,1-.957.617,2.039,2.039,0,0,1-.867.224,1.34,1.34,0,0,1-.894-.271,1.026,1.026,0,0,1-.341-.827,1.559,1.559,0,0,1,.378-.983,3.756,3.756,0,0,1,1.016-.833,5.382,5.382,0,0,1,1.438-.6,6.551,6.551,0,0,1,1.639-.2,5.106,5.106,0,0,1,1.429.184,3.168,3.168,0,0,1,1.121.568A2.551,2.551,0,0,1,771,87.826Zm12.4-3.105,1.622-.331-1.4,4.739q-.376,1.277-.732,2.735t-.686,3.091q-.18.886-.271,1.457a5.771,5.771,0,0,0-.088.8.353.353,0,0,0,.034.194c.009.01.034.015.077.015a.721.721,0,0,0,.232-.065,3.555,3.555,0,0,0,.455-.234,10.3,10.3,0,0,0,.983-.665,11.721,11.721,0,0,0,.943-.81l.236-.227.934,1.134-.216.194q-.973.882-1.574,1.4a9.5,9.5,0,0,1-1.986,1.38,7.89,7.89,0,0,1-1.036.46,4.517,4.517,0,0,1-.678.188,3.548,3.548,0,0,1-.669.066,1.565,1.565,0,0,1-.469-.066,1.044,1.044,0,0,1-.388-.213l0,0a.922.922,0,0,1-.242-.365,1.278,1.278,0,0,1-.075-.445,1.929,1.929,0,0,1,.041-.355,3.915,3.915,0,0,1,.11-.424l.3-.994c-.231.226-.468.445-.714.657a15.188,15.188,0,0,1-1.905,1.392,5.98,5.98,0,0,1-1.239.608,3.629,3.629,0,0,1-1.173.21,2.341,2.341,0,0,1-.991-.2,1.971,1.971,0,0,1-.75-.609,3.551,3.551,0,0,1-.579-1.172,5.139,5.139,0,0,1-.19-1.441,8.422,8.422,0,0,1,.245-1.956,13.011,13.011,0,0,1,.728-2.137,15.218,15.218,0,0,1,1.135-2.13,14.979,14.979,0,0,1,1.465-1.925,13.222,13.222,0,0,1,1.677-1.586,9.608,9.608,0,0,1,1.776-1.112,6.62,6.62,0,0,1,1.63-.5,11.126,11.126,0,0,1,2-.166c.181,0,.37.007.561.018l.372.031.373-.607Zm-2.4,3.14c-.173-.031-.338-.055-.49-.074a5.65,5.65,0,0,0-.656-.044,4.361,4.361,0,0,0-1.319.192,3.835,3.835,0,0,0-1.134.579,4.684,4.684,0,0,0-1.015,1.1,10.851,10.851,0,0,0-.976,1.778,11.059,11.059,0,0,0-.7,2.1,9.564,9.564,0,0,0-.233,2.091,4.094,4.094,0,0,0,.088.914,1.425,1.425,0,0,0,.233.548.966.966,0,0,0,.339.29.933.933,0,0,0,.428.094,2.35,2.35,0,0,0,1.06-.28,5.289,5.289,0,0,0,1.211-.887,5.727,5.727,0,0,0,1.088-1.452,9.107,9.107,0,0,0,.771-2.013Z" transform="translate(-547.931 -69.765)" fill="red"/>
      <path id="Path_61" data-name="Path 61" d="M319.867,165.53l-.081.328-.111.027a5.717,5.717,0,0,0-.619.189,3.391,3.391,0,0,0-.49.227,4.418,4.418,0,0,0-.518.351q-.309.236-.689.57-1.043.91-1.943,1.606-.8.62-1.505,1.075c.1.138.2.281.294.432a6.084,6.084,0,0,1,.354.664c.106.231.251.61.432,1.132s.4,1.195.657,1.995a13.938,13.938,0,0,0,.687,1.793,4.255,4.255,0,0,0,.681,1.067,2.6,2.6,0,0,0,.674.533,1.388,1.388,0,0,0,.65.169.767.767,0,0,0,.486-.15,1.007,1.007,0,0,0,.312-.483,3.97,3.97,0,0,1,.153-.385.815.815,0,0,1,.169-.249.769.769,0,0,1,.219-.138.692.692,0,0,1,.74.147.709.709,0,0,1,.151.218.647.647,0,0,1,.054.261,1.16,1.16,0,0,1-.183.61,2.116,2.116,0,0,1-.5.543,2.343,2.343,0,0,1-.76.4,3.09,3.09,0,0,1-.917.13,3.224,3.224,0,0,1-.84-.111,3.368,3.368,0,0,1-.794-.331,3.521,3.521,0,0,1-.742-.562,5.4,5.4,0,0,1-.66-.8,7.591,7.591,0,0,1-.629-1.166q-.313-.7-.632-1.641-.294-.882-.518-1.48c-.15-.4-.277-.7-.381-.913a6.537,6.537,0,0,0-.373-.655c-.081-.126-.169-.254-.262-.384l-.819,3.126c-.09.351-.166.653-.223.906l-.094.449a3.165,3.165,0,0,0,.389.122,1.983,1.983,0,0,0,.454.057c.191,0,.381-.018.572-.03l-.213.82c-.107,0-.268,0-.368.016s-.216-.006-.358-.016l-.473-.045c-.182-.02-.348-.036-.5-.046s-.276-.014-.393-.014a7.988,7.988,0,0,0-.911.068q-.574.07-1.331.206l-.252.046.1-.809.136-.027a4.115,4.115,0,0,0,.676-.186,1.391,1.391,0,0,0,.4-.226,1.3,1.3,0,0,0,.265-.327,2.474,2.474,0,0,0,.216-.5q.229-.7.529-1.76t.662-2.445l.987-3.747a6.6,6.6,0,0,0-1.23.218,3.957,3.957,0,0,0-1.121.509,1.879,1.879,0,0,0-.525.489.875.875,0,0,0-.159.494.573.573,0,0,0,.041.191,1.578,1.578,0,0,0,.145.279,1.918,1.918,0,0,1,.164.312.793.793,0,0,1,.064.292.752.752,0,0,1-.058.292.823.823,0,0,1-.416.425.732.732,0,0,1-.3.061.7.7,0,0,1-.348-.091.972.972,0,0,1-.283-.25,1.116,1.116,0,0,1-.192-.374,1.613,1.613,0,0,1-.061-.452,2.511,2.511,0,0,1,.325-1.235,3.729,3.729,0,0,1,.946-1.081,4.25,4.25,0,0,1,1.718-.761,11.512,11.512,0,0,1,2.568-.247H314l-.1.258q-.239.626-.389,1.058c-.1.3-.18.536-.229.715l-.592,2.244.319-.166c.241-.132.5-.3.783-.489s.557-.392.83-.6.54-.419.8-.634q.727-.61,1.126-.967a5.77,5.77,0,0,0,.467-.449,1.668,1.668,0,0,0-.3-.039c-.169-.012-.387-.021-.653-.027l-.234,0,.2-.874.166.015c.361.033.7.059,1,.076s.562.026.8.026.5-.009.771-.026.573-.043.887-.076l.27-.029Z" transform="translate(-278.308 -149.509)" fill="red"/>
      <path id="Path_62" data-name="Path 62" d="M75.492,149.4l-.018.824.017.328.464,5.911.419-.738q1.054-1.853,1.98-3.227A21.7,21.7,0,0,1,80.1,150.2a7.211,7.211,0,0,1,1.588-1.385,2.943,2.943,0,0,1,1.525-.477,1.265,1.265,0,0,1,.716.172.652.652,0,0,1,.287.573.7.7,0,0,1-.074.325.564.564,0,0,1-.227.234,1.225,1.225,0,0,1-.343.127,3.9,3.9,0,0,1-.479.073,4.437,4.437,0,0,0-.684.112,2.55,2.55,0,0,0-.526.187,2.969,2.969,0,0,0-.574.431c-.245.221-.536.514-.871.878a14.275,14.275,0,0,0-1.044,1.288q-.539.74-1.119,1.687t-1.324,2.245q-.749,1.309-1.652,2.957a10.375,10.375,0,0,1-.976,1.519,3.1,3.1,0,0,1-.925.832,4.242,4.242,0,0,1-.843.335,3.218,3.218,0,0,1-.825.112,3.028,3.028,0,0,1-.793-.1,2.307,2.307,0,0,1-.679-.3,1.6,1.6,0,0,1-.476-.46,1.045,1.045,0,0,1-.171-.572.72.72,0,0,1,.052-.271.766.766,0,0,1,.154-.235.711.711,0,0,1,.225-.17.607.607,0,0,1,.27-.062.807.807,0,0,1,.4.113,1.643,1.643,0,0,1,.372.3,3.1,3.1,0,0,0,.671.552,1.132,1.132,0,0,0,.551.17,1.487,1.487,0,0,0,1.064-.569,6.581,6.581,0,0,0,1.085-1.794l-.639-8.7h-.056a4.168,4.168,0,0,0-1.471.251,3.766,3.766,0,0,0-1.222.751,2.965,2.965,0,0,0-1.1,2.243,2.274,2.274,0,0,0,.094.625,3.841,3.841,0,0,0,.291.714,2.1,2.1,0,0,1,.133.308.861.861,0,0,1,.051.272.615.615,0,0,1-.06.268.661.661,0,0,1-.17.219.754.754,0,0,1-.243.142.843.843,0,0,1-.28.047.733.733,0,0,1-.471-.164,1.119,1.119,0,0,1-.314-.442,2.608,2.608,0,0,1-.171-.585,3.746,3.746,0,0,1-.056-.66,4.541,4.541,0,0,1,.353-1.771,5.4,5.4,0,0,1,1.051-1.59,4.477,4.477,0,0,1,1.717-1.135,6.484,6.484,0,0,1,2.285-.375,2.911,2.911,0,0,0,.6-.056,1.363,1.363,0,0,0,.422-.158l.3-.18-.008.346Z" transform="translate(-62.219 -134.21)" fill="red"/>
    </g>
  </g>
</svg>
