<svg id="paint-palette" xmlns="http://www.w3.org/2000/svg" width="64.001" height="64" viewBox="0 0 64.001 64">
  <g id="Group_94" data-name="Group 94" transform="translate(13.125 24.5)">
    <g id="Group_93" data-name="Group 93">
      <path id="Path_31" data-name="Path 31" d="M122.873,196a1.875,1.875,0,1,0,1.875,1.875A1.876,1.876,0,0,0,122.873,196Z" transform="translate(-120.998 -196)" fill="red"/>
    </g>
  </g>
  <g id="Group_96" data-name="Group 96" transform="translate(13.125 39.5)">
    <g id="Group_95" data-name="Group 95">
      <path id="Path_32" data-name="Path 32" d="M122.873,316a1.875,1.875,0,1,0,1.875,1.875A1.876,1.876,0,0,0,122.873,316Z" transform="translate(-120.998 -316)" fill="red"/>
    </g>
  </g>
  <g id="Group_98" data-name="Group 98" transform="translate(22.5 11.375)">
    <g id="Group_97" data-name="Group 97">
      <path id="Path_33" data-name="Path 33" d="M197.873,91a1.875,1.875,0,1,0,1.875,1.875A1.876,1.876,0,0,0,197.873,91Z" transform="translate(-195.998 -91)" fill="red"/>
    </g>
  </g>
  <g id="Group_100" data-name="Group 100" transform="translate(26.25 48.875)">
    <g id="Group_99" data-name="Group 99">
      <path id="Path_34" data-name="Path 34" d="M227.873,391a1.875,1.875,0,1,0,1.875,1.875A1.876,1.876,0,0,0,227.873,391Z" transform="translate(-225.998 -391)" fill="red"/>
    </g>
  </g>
  <g id="Group_102" data-name="Group 102">
    <g id="Group_101" data-name="Group 101">
      <path id="Path_35" data-name="Path 35" d="M53.65,41.342a13.134,13.134,0,0,1-.006-18.678,12.687,12.687,0,0,0,3.2-12.616A13.291,13.291,0,0,0,47.369.606,21.927,21.927,0,0,0,42.248,0C27.774,0,16,14.424,16,32s11.776,32,26.25,32a21.894,21.894,0,0,0,5.143-.613,13.288,13.288,0,0,0,9.466-9.449A12.675,12.675,0,0,0,53.65,41.342ZM40.373,7.5A5.739,5.739,0,0,1,46,13.25a5.625,5.625,0,0,1-11.25,0A5.739,5.739,0,0,1,40.373,7.5ZM31,47a5.625,5.625,0,1,1,5.625-5.625A5.631,5.631,0,0,1,31,47Zm0-15a5.625,5.625,0,1,1,5.625-5.625A5.631,5.631,0,0,1,31,32ZM44.123,56.5A5.739,5.739,0,0,1,38.5,50.75a5.625,5.625,0,0,1,11.25,0A5.739,5.739,0,0,1,44.123,56.5Z" transform="translate(-15.998)" fill="red"/>
    </g>
  </g>
  <g id="Group_104" data-name="Group 104" transform="translate(49 41.375)">
    <g id="Group_103" data-name="Group 103">
      <path id="Path_36" data-name="Path 36" d="M389.3,343.845l1.018-2.208v0A7.5,7.5,0,1,0,376,338.5v1.875a13.248,13.248,0,0,0,13.125,13.25,1.875,1.875,0,0,0,1.326-3.2A5.956,5.956,0,0,1,389.3,343.845Z" transform="translate(-375.999 -331)" fill="red"/>
    </g>
  </g>
  <g id="Group_106" data-name="Group 106" transform="translate(49.077 18.952)">
    <g id="Group_105" data-name="Group 105">
      <path id="Path_37" data-name="Path 37" d="M389.461,153.86a7.682,7.682,0,0,0-10.854.009,7.405,7.405,0,0,0-1.992,4.215c0,.013,0,.024,0,.037a11.181,11.181,0,0,1,14.844-.021h0A7.421,7.421,0,0,0,389.461,153.86Z" transform="translate(-376.615 -151.619)" fill="red"/>
    </g>
  </g>
  <g id="Group_108" data-name="Group 108" transform="translate(49.526 26.375)">
    <g id="Group_107" data-name="Group 107">
      <path id="Path_38" data-name="Path 38" d="M393.887,215.146a7.469,7.469,0,0,0-13.683.7,42.185,42.185,0,0,0,1.6,7.831,10.825,10.825,0,0,1,10.753,0,42.769,42.769,0,0,0,1.645-8.137A1.813,1.813,0,0,1,393.887,215.146Z" transform="translate(-380.204 -211)" fill="red"/>
    </g>
  </g>
  <g id="Group_110" data-name="Group 110" transform="translate(49.156)">
    <g id="Group_109" data-name="Group 109">
      <path id="Path_39" data-name="Path 39" d="M384.591,0c-4.911,0-6.831,9.852-7.344,17.94a11.506,11.506,0,0,1,14.688,0C391.421,9.851,389.5,0,384.591,0Z" transform="translate(-377.247)" fill="red"/>
    </g>
  </g>
</svg>
