<svg id="piggy-bank" xmlns="http://www.w3.org/2000/svg" width="48" height="48" viewBox="0 0 48 48">
  <g id="Group_158" data-name="Group 158" transform="translate(19.875)">
    <g id="Group_157" data-name="Group 157">
      <path id="Path_57" data-name="Path 57" d="M217.625,0a5.625,5.625,0,1,0,5.625,5.625A5.631,5.631,0,0,0,217.625,0Z" transform="translate(-212)" fill="#ddd"/>
    </g>
  </g>
  <g id="Group_160" data-name="Group 160" transform="translate(0 11.438)">
    <g id="Group_159" data-name="Group 159">
      <path id="Path_58" data-name="Path 58" d="M45.188,131.844v1.406a2.771,2.771,0,0,1-3.438,2.714,15.487,15.487,0,0,0-14.844-11.152h-9.4a1.341,1.341,0,0,1-1.009-.448A7.009,7.009,0,0,0,11.25,122H7.031a1.406,1.406,0,0,0-1.366,1.739L7.089,129.6A15.333,15.333,0,0,0,4.5,133.25,4.235,4.235,0,0,0,0,137.469v4.168c0,2.67,2.067,3.645,4.265,5.2a15.428,15.428,0,0,0,3.619,4.9,1.557,1.557,0,0,1,.553,1.112v3.316a2.4,2.4,0,0,0,2.4,2.4h5.048c1.315,0,2.4-.89,2.4-2.812h8.625c0,1.923,1.083,2.813,2.4,2.813h5.048a2.4,2.4,0,0,0,2.4-2.4c0-2.125-.241-3.573,1.243-5.095a15.435,15.435,0,0,0,4.382-10.789c0-.477-.029-.947-.072-1.413.026,0,.053.008.08.008A5.627,5.627,0,0,0,48,133.25v-1.406A1.406,1.406,0,0,0,45.188,131.844ZM9.844,137.469a1.406,1.406,0,1,1,1.406-1.406A1.406,1.406,0,0,1,9.844,137.469Zm17.063-4.219h-6.4a1.406,1.406,0,0,1,0-2.812h6.4A1.406,1.406,0,0,1,26.906,133.25Z" transform="translate(0 -122)" fill="#ddd"/>
    </g>
  </g>
</svg>
