<svg id="rocking-horse" xmlns="http://www.w3.org/2000/svg" width="58.562" height="64" viewBox="0 0 58.562 64">
  <g id="Group_84" data-name="Group 84" transform="translate(0 50.881)">
    <g id="Group_83" data-name="Group 83">
      <path id="Path_26" data-name="Path 26" d="M58.286,409.3a3.341,3.341,0,0,0-4.505-1.972A57.907,57.907,0,0,1,29.4,412.647c-14.149,0-21.535-4.315-24.967-5.456A3.341,3.341,0,0,0,.277,409.3a3.9,3.9,0,0,0,1.8,4.924A65.3,65.3,0,0,0,29.4,420.144a64.333,64.333,0,0,0,27.086-5.919A3.9,3.9,0,0,0,58.286,409.3Z" transform="translate(-0.001 -407.025)" fill="red"/>
    </g>
  </g>
  <g id="Group_86" data-name="Group 86" transform="translate(20.588 22.503)">
    <g id="Group_85" data-name="Group 85">
      <path id="Path_27" data-name="Path 27" d="M180,180.037v9.376a1.8,1.8,0,0,0,1.716,1.875h10.523a1.8,1.8,0,0,0,1.716-1.875v-9.376Z" transform="translate(-180 -180.037)" fill="red"/>
    </g>
  </g>
  <g id="Group_88" data-name="Group 88" transform="translate(6.863 7.501)">
    <g id="Group_87" data-name="Group 87">
      <path id="Path_28" data-name="Path 28" d="M110.191,66.988l-4.852-5.3a4.905,4.905,0,0,0-3.639-1.648H99.69c-4.73,0-8.578,4.206-8.578,9.376v15a5.408,5.408,0,0,1-5.147,5.626H75.441a5.408,5.408,0,0,1-5.147-5.626V75.228C64.489,76.147,60,81.57,60,88.165v12.373a56.674,56.674,0,0,0,10.294,3.478v-.6a5.408,5.408,0,0,1,5.147-5.626H85.964a5.408,5.408,0,0,1,5.147,5.626v1.134a54.022,54.022,0,0,0,10.294-2.613V78.789h5.147a5.408,5.408,0,0,0,5.147-5.626v-2.2A5.865,5.865,0,0,0,110.191,66.988Zm-10.5,4.3a1.883,1.883,0,1,1,1.716-1.875A1.8,1.8,0,0,1,99.69,71.288Z" transform="translate(-60 -60.036)" fill="red"/>
    </g>
  </g>
  <g id="Group_90" data-name="Group 90" transform="translate(31.111 0)">
    <g id="Group_89" data-name="Group 89" transform="translate(0 0)">
      <path id="Path_29" data-name="Path 29" d="M287.441.037C278.926.037,272,7.608,272,16.914V18.79h3.431V16.914c0-7.237,5.388-13.127,12.01-13.127h2.011a7.911,7.911,0,0,1,3,.614A5.272,5.272,0,0,0,287.441.037Z" transform="translate(-272 -0.037)" fill="red"/>
    </g>
  </g>
  <g id="Group_92" data-name="Group 92" transform="translate(0 18.757)">
    <g id="Group_91" data-name="Group 91">
      <path id="Path_30" data-name="Path 30" d="M10.006,150.192C4.623,149.263,0,153.756,0,159.442v15.252a1.8,1.8,0,0,0,1.716,1.875,7.874,7.874,0,0,0,1.716-.19v-9.437a16.959,16.959,0,0,1,9.525-15.458A7.645,7.645,0,0,0,10.006,150.192Z" transform="translate(0 -150.07)" fill="red"/>
    </g>
  </g>
</svg>
