<svg xmlns="http://www.w3.org/2000/svg" width="18.75" height="24" viewBox="0 0 18.75 24">
  <g id="shopping-bag" transform="translate(-56)">
    <path id="Контур_758" data-name="Контур 758" d="M72.594,0H58.156A2.156,2.156,0,0,0,56,2.156V21.844A2.156,2.156,0,0,0,58.156,24h3.775a.235.235,0,0,0,.145-.418,5.25,5.25,0,1,1,6.593,0,.234.234,0,0,0,.147.416h3.776a2.156,2.156,0,0,0,2.156-2.156V2.156A2.156,2.156,0,0,0,72.594,0ZM70.6,6h-.125a.235.235,0,0,0-.234.226,4.875,4.875,0,0,1-9.74,0A.235.235,0,0,0,60.271,6h-.125a.764.764,0,0,1-.77-.714.75.75,0,0,1,.749-.786h2.229a.764.764,0,0,1,.77.714A.75.75,0,0,1,62.375,6h-.132a.235.235,0,0,0-.234.251,3.375,3.375,0,0,0,6.731,0A.235.235,0,0,0,68.507,6H68.4a.764.764,0,0,1-.77-.714.75.75,0,0,1,.749-.786h2.25a.75.75,0,0,1,.749.786A.764.764,0,0,1,70.6,6Z" fill="#ccc"/>
    <path id="Контур_759" data-name="Контур 759" d="M183.5,339.75a3.75,3.75,0,1,0-3.75,3.75A3.754,3.754,0,0,0,183.5,339.75Zm-1.9.75h-.869a.234.234,0,0,0-.234.234v.869a.764.764,0,0,1-.714.77.75.75,0,0,1-.786-.749v-.891a.234.234,0,0,0-.234-.234H177.9a.764.764,0,0,1-.77-.714.75.75,0,0,1,.749-.786h.891a.234.234,0,0,0,.234-.234V337.9a.764.764,0,0,1,.714-.77.75.75,0,0,1,.786.749v.891a.234.234,0,0,0,.234.234h.891a.75.75,0,0,1,.749.786A.764.764,0,0,1,181.6,340.5Z" transform="translate(-114.375 -320.25)" fill="#ccc"/>
  </g>
</svg>
