<svg id="Сгруппировать_10" data-name="Сгруппировать 10" xmlns="http://www.w3.org/2000/svg" width="24" height="24" viewBox="0 0 24 24">
  <g id="Сгруппировать_116" data-name="Сгруппировать 116">
    <path id="Контур_48" data-name="Контур 48" d="M12,0A12,12,0,1,0,24,12,12.014,12.014,0,0,0,12,0Zm5.046,20.014-.517-.89a.336.336,0,0,0-.29-.166.328.328,0,0,0-.167.045.334.334,0,0,0-.121.457l.518.891a9.406,9.406,0,0,1-3.837,1.1V20.2a.632.632,0,0,0-1.263,0v1.256a9.4,9.4,0,0,1-3.786-1.074l.512-.894a.334.334,0,0,0-.289-.5.336.336,0,0,0-.291.168L7,20.045a9.55,9.55,0,0,1-2.87-2.773l1.086-.627a.632.632,0,1,0-.632-1.094L3.5,16.179a9.406,9.406,0,0,1-.965-3.815l1.031,0a.334.334,0,0,0,0-.669l-1.033,0A9.409,9.409,0,0,1,3.5,7.822l1.087.628a.632.632,0,0,0,.632-1.094L4.132,6.729A9.548,9.548,0,0,1,6.954,3.986l.517.89A.33.33,0,0,0,7.593,5a.337.337,0,0,0,.335,0,.334.334,0,0,0,.121-.457l-.518-.891a9.4,9.4,0,0,1,3.837-1.1V3.8a.632.632,0,1,0,1.263,0V2.548a9.4,9.4,0,0,1,3.786,1.074l-.512.894a.335.335,0,0,0,.124.456.329.329,0,0,0,.166.044.335.335,0,0,0,.291-.168L17,3.955a9.549,9.549,0,0,1,2.87,2.773l-1.086.627a.632.632,0,1,0,.632,1.094L20.5,7.822a9.4,9.4,0,0,1,.965,3.815l-1.031,0a.334.334,0,0,0-.333.335.334.334,0,0,0,.334.333h0l1.032,0a9.409,9.409,0,0,1-.968,3.873l-1.087-.628a.632.632,0,0,0-.632,1.094l1.086.627A9.553,9.553,0,0,1,17.046,20.014Z" fill="red"/>
    <path id="Контур_49" data-name="Контур 49" d="M107.947,134.295l-4.051,2.248a1.325,1.325,0,0,0-1.234,0l-4.051-2.248a.793.793,0,1,0-.77,1.387l4.133,2.293a1.329,1.329,0,0,0,2.608,0l4.133-2.293a.793.793,0,1,0-.769-1.387Z" transform="translate(-91.28 -125.72)" fill="red"/>
  </g>
</svg>
